<svg id="Layer_1" data-name="Layer 1" xmlns="http://www.w3.org/2000/svg" xmlns:xlink="http://www.w3.org/1999/xlink" viewBox="0 0 1740 493.56"><defs><style>@font-face{
font-family:'Semplicita Pro Regular';src: url('../fonts/SemplicitaProRegular.otf')}.cls-1{fill:none;}.cls-2{clip-path:url(#clip-path);}.cls-3{clip-path:url(#clip-path-2);}.cls-4{fill:#88d3d5;}.cls-5{fill:#fbc42b;}.cls-6{fill:#e8523d;}.cls-7{fill:#f7df7a;}.cls-8{fill:#b6d160;}.cls-9{fill:#32ab76;}.cls-10{fill:#f7f1e8;}.cls-11{fill:#39b6b8;}.cls-12{fill:#0091ab;}.cls-13{fill:#f8f4ed;}.cls-14{fill:#1a171b;}.cls-15,.cls-16{fill:#fff;}.cls-16{font-size:47.94px;font-family:'Semplicita Pro Regular';font-weight:700;}</style><clipPath id="clip-path"><rect class="cls-1" width="1740" height="493.56"/></clipPath><clipPath id="clip-path-2"><polygon class="cls-1" points="3062.35 509 -830.08 510.1 -830.53 0.06 3061.89 0 3062.35 509"/></clipPath></defs><title>_EkoAppy_web_banner</title><g class="cls-2"><g class="cls-3"><path class="cls-4" d="M99.2-51.81a377.4,377.4,0,0,0-31-54C22.62-171.33-40.06-230.59-110.44-268.64a426.25,426.25,0,0,0-79.71-32.7c-1.74-.21-3.51-0.49-5.32-0.88q-59.5-12.89-119.35-22.45c-33.4-.81-66.72-2.67-100-5.26q-28.36-1-56.72-2.36c-25,.81-50.23-0.85-74.88-3.42-32.73-1.42-65.49-2.64-98.28-3.22-106.16-1.87-211.84,8.13-317.51.65q0.86,40,3,80c7.9,154.87,21.53,308.79,22.57,464,0.53,78.45.06,157.28,2.11,236,91.79,1.27,183.58,1.89,275.36-.36,126.06-3.08,252.47-11.13,377-32A1776.31,1776.31,0,0,0-94.93,367.54C-51,355.17-8.82,340.26,29,314.05c24.8-17.19,44.4-39.53,59.34-68.83,0.58-1.15,3.62-7.81,4.9-10.48,0.91-2.52,2.94-7.86,2.79-7.41,2.49-7.38,4.82-14.78,6.77-22.31,2.39-9.23,4.26-18.56,5.87-28,0.11-.63.4-2.58,0.6-3.85,0.49-4.07.94-8.15,1.3-12.23C116.87,90.21,108.11,18.67,99.2-51.81Z"/><path class="cls-5" d="M748.08-78.74c-37.75-54.75-645.57-95.07-709.48-100-65.73-5.09-206.91,293.43-251.5,345.44-41.75,48.7-11.69,178-11.94,243.89-0.25,65.58,26.31,132.17,74.3,173.43a216.23,216.23,0,0,0,102,48.87c55.19,19.07,118,8.11,167.18-26.56,52.76-37.16,713.51-4,719.35-72.25C843.7,467.89,785-25.18,748.08-78.74ZM-12.37,454.54c-0.64.33-1.25,0.67-1.81,1l-1.68.41-0.41-.09A9.3,9.3,0,0,1-14,454.54,11.38,11.38,0,0,1-12.37,454.54Z"/><rect class="cls-6" x="1336.1" y="-56.79" width="718.56" height="456.89"/><path class="cls-4" d="M2729.31,39.82c-2.22-34-15.72-65.44-37.64-87.76-44.36-45.16-109.88-54.89-165.63-64.24-77.25-13-155.43-13.64-233.31-11.78-36.61.87-73.09,3.9-109.27,10.69-30.4,5.7-60.73,14.17-87.68,32.25-24.65,16.54-72.17-4.8-75.45,29.48-1,10.11,25.54,69.74,26.79,79.37,0.26,18-14.18,39.55-9.66,57.33,3.85,15.12-11.57,28.68-16.06,44.36-3.74,13.06-24.17,9.15-32.64,16.72-20.31,18.15,2.75,41.11-21.91,47.34-28.6,7.22-57.27,14.08-85.88,21.28-66.7,16.79-134.6,33.43-193.89,75-45.3,31.77-82.8,88.78-83.27,153.06-0.54,75.49,58.84,117.79,114.54,132.85,62,16.77,127.24,5.61,189.28-4.86,76-12.84,151.71-11.53,228.26-7.63,36.77,1.87,73.62,3.26,110.33-.81a323.22,323.22,0,0,0,51.58-9.8c16.55-4.63,33.77-9.77,49-19,45.58-27.67,93.09-103.7,58.45-163.51-14.69-25.37-35.73-33.93-59.49-42.24-5-1.75-10.09-3.3-15.12-5-1.08-.37-4.92-1.73-5.9-2.06l-1.78-.69c-1.62-.66-3.23-1.32-4.83-2a95.67,95.67,0,0,1-13.28-7c-0.86-.55-4.32-3.54-4-3.11-1.22-1.27-2.42-2.55-3.66-3.78-0.38-.77-0.79-1.55-1.22-2.27q-0.23-1-.49-2c0.81,2.87.52-2.95,0-.13l-0.08-.32v-0.18c0.31-.68.88-2.34,0.54-2,0.21-.4.46-0.82,0.64-1.22,1.2-1.28,2.75-3.19,1.61-2.21,1.37-1.29,2.75-2.52,4.21-3.71,0.76-.62,1.58-1.17,2.37-1.73l-0.86.62c0.47-.32,1.3-0.88,1.95-1.24a109.4,109.4,0,0,1,13.1-6.1c0.83-.33,4.31-1.53,4.31-1.58,2.58-.77,5.21-1.39,7.82-2a265.32,265.32,0,0,1,31.89-5.1c53.48-5.65,107.25-6,160.28-17.2,66.23-14,132.92-45.46,175.29-109.81C2718.25,116,2731.84,78.53,2729.31,39.82Z"/><g id="_Group_" data-name="&lt;Group&gt;"><path id="_Path_" data-name="&lt;Path&gt;" class="cls-5" d="M1672.2,357.33c14.13,8.67,27.7,19.35,37.52,25.26,15,9.05,30.2,17.69,44.9,27.3,13.45,8.79,31,14.44,41.62,27,13.2,15.62,20.58,40,29.61,58.27q32,64.91,64.06,129.79l0.15,0.29c1.39,2.88,1.4,2.9-1.48,4.33-16,7.91-32.62,18.79-50.43,21.95-18,3.2-36.51-1.56-54.49-2.91-51-3.85-102.3-9.62-153.38-11.29-22.11-.72-47.52,4.29-68.48-4.6-30.35-12.88-52.36-63.36-70-89.35-31.16-45.81-62.33-91.7-90.21-139.61,26.94,5.37,68.52-12.54,94.09-19.81q45-12.82,89.94-26.1c7.08-2.09,14.12-4.32,21.2-6.43,2.74-.82,5.37-2,8.23-2.51,4.64-.9,9.06-2.73,13.58-4.09C1641.15,341,1657,348,1672.2,357.33Z"/></g><path class="cls-7" d="M1383.08,210.22h0Z"/><path class="cls-6" d="M1776.68,53.24a131.4,131.4,0,0,0-45.23-89.51c-53.32-46.06-132.08-56-199.09-65.51-92.85-13.21-186.83-13.89-280.45-12-44,.89-87.86,4-131.36,10.91-36.55,5.82-73,14.46-105.4,32.91C985.52-53.09,959.75-24,955.81,10.93a113.77,113.77,0,0,0,.84,30.15c0.31,18.4,5,37,10.48,55.18,4.62,15.42,9.79,31.61,4.39,47.61-4.5,13.32-15.58,24.89-25.77,32.61-24.42,18.51-56,27.33-85.62,33.68-34.38,7.37-68.84,14.37-103.24,21.72C676.71,249,595.09,266,523.81,308.42c-54.45,32.41,290,83,289.47,148.61-0.66,77-318.86,127.67-251.91,143,74.51,17.1,153,5.71,227.52-5,91.41-13.1,182.36-11.78,274.39-7.8,44.21,1.91,88.5,3.31,132.62-.84a451,451,0,0,0,62-10c19.9-4.73,40.59-10,58.87-19.39,54.79-28.23,111.91-105.79,70.28-166.79-17.66-25.87-42.94-34.61-71.51-43.08-6-1.79-12.12-3.36-18.17-5.1-1.3-.37-5.91-1.76-7.1-2.11l-2.14-.71c-1.94-.67-3.88-1.35-5.81-2.07a123.35,123.35,0,0,1-16-7.11c-1-.56-5.19-3.61-4.85-3.17-1.47-1.29-2.91-2.6-4.4-3.86-0.46-.78-1-1.58-1.47-2.31q-0.28-1-.59-2.07c1,2.93.62-3,0-.13l-0.1-.33,0-.19c0.37-.69,1.06-2.38.65-2.07,0.25-.41.56-0.83,0.76-1.24,1.44-1.31,3.31-3.25,1.93-2.25,1.65-1.31,3.31-2.57,5.06-3.78,0.91-.63,1.9-1.19,2.85-1.77l-1,.63c0.56-.33,1.56-0.9,2.34-1.26a143.54,143.54,0,0,1,15.75-6.22c1-.33,5.19-1.57,5.18-1.61,3.11-.78,6.26-1.42,9.4-2a371.84,371.84,0,0,1,38.33-5.21c64.29-5.76,128.92-6.16,192.67-17.56,79.62-14.24,128.73-73.38,232.16-68.49C1799.8,207,1779.71,92.73,1776.68,53.24Z"/><path class="cls-8" d="M963.58-412.14c-14.79-22.92-39.55-37.25-64.52-46.66s-51.14-16-77-22.21a530.56,530.56,0,0,0-92-14c-62.68-3.77-128,1.74-186,27.31-28.56,12.58-52.68,30.47-69.12,57.33-13.94,22.77-19.32,49.43-20.25,75.83s3.8,52.62,9.41,78.32a16.78,16.78,0,0,0,6.12,9.6q0.72,3.44,1.42,6.87c5.6,27.67-88.82-246.65-97.2-219.15-6.35,20.82-54.89,33-71.63,46.81C266.54-382.29,199-358.55,153.67-350.31c-27.7,5,97.4,307.16,69.35,309.55-34.45,2.94-68.9,5.61-102.42,14.59C65.55-11.42,6.26,32.65,11.38,96.33c2.11,26.2,14.39,50,35.79,65.43,20.16,14.52,43.92,22.43,68,27.78,22.55,5,45.55,7.45,68.51,9.62,34,3.21,68.07,6.66,102.15,9.52,69,5.79,131,31.86,200.08,25.56,60.36-5.5,131.57-42.82,170.42-92.8C690.7,97.22,706.94,38.26,695.82-17c-5.75-28.58-18.41-55.33-29-82.33-10.09-25.77-20.89-54.15-18.58-82.36,0.89-10.83,5.1-24,9.94-31.57,4.5-7.08,10.56-12.83,18.5-18.34,16.23-11.27,37.37-18,57.78-22,42.09-8.25,85.57-8.31,126.94-20.2,39.43-11.33,86.56-31.84,106.47-70.14C979.28-365.81,976.8-391.64,963.58-412.14Z"/><path class="cls-4" d="M1580.32,268.61c-22.72-.4-45-3.83-65.06-13.15-19.43-9-30-29.93-22.28-50.51,7.37-19.69,25.43-32.85,45.36-37.87,25.95-6.54,137.82-7.27,164.24-10.75a194.63,194.63,0,0,0,35.66-7.82,78.22,78.22,0,0,0,14-5.94c1.82-1,3.57-2.14,5.32-3.3,0.62-.41.92-0.59,1-0.66s0.37-.34.83-0.74a66.92,66.92,0,0,0,7.48-7.52c0.19-.29,1.33-1.8,1.68-2.34,0.86-1.34,1.71-2.7,2.49-4.09s1.63-3.08,2.35-4.67c0.12-.38.71-2,0.92-2.64a98.85,98.85,0,0,0,2.49-9.94l0.09-.43c0.07-.63.14-1.25,0.18-1.88,0.13-1.85.23-3.69,0.25-5.55a87.51,87.51,0,0,0-.47-9.54c0-.08,0-0.13,0-0.19l-0.12-.6c-0.15-.78-0.29-1.57-0.45-2.36q-0.48-2.35-1.09-4.67a84.51,84.51,0,0,0-2.91-8.91c-0.21-.41-1.19-2.63-1.51-3.26q-1.25-2.49-2.67-4.9c-0.81-1.37-1.68-2.7-2.55-4-0.38-.58-1.53-2.13-1.66-2.35a71.56,71.56,0,0,0-6.85-7.27c-0.22-.2-0.76-0.67-1.34-1.16a92.91,92.91,0,0,0-19.7-7.31q-2.37-.21-4.75-0.36c-35.55-2.25-152.77,9.63-189.72,9.63-29.54,0-57.81,6.24-87.37,5.11-10.81-.41-27.87-9.13-35.91-17.39-11.81-12.12-8.77-25.81,4.11-33.71,18.31-11.23,48.25-6.57,68.33-6.22,13.52,0.24,27,.56,40.56.61C1551.18,0,1571-.33,1590.88-1.4c10.6-.57,21.2-1.35,31.76-2.44q4.51-.47,9-1l3.33-.42,0.78-.11c4.68-.68,9.34-1.42,14-2.27,5.58-1,11.14-2.23,16.64-3.64,18.43-8.89,73.67-3.15,65-25-6.55-16.59-62.28-46-78.36-50.5-18.92-5.32-38.79-5.48-58.29-5.82-23.62-.41-47.17-2.65-70.78-3.35-27.72-.82-55.4.9-83.12,1.28-54.69.74-109-.51-163.53,5.58-4.76.53-9.51,1.13-14.26,1.76-14.63,1.37-29.24,3-43.77,5.07q-8.72-.3-17.49-0.44c-28.27-.46-56.37-4.42-84.68-3-34.39,1.69-76.66,10.49-97.29,41.09-22.41,33.24-13.13,82.4,25.28,98.4,17.71,7.38,37.4,8.47,56.3,6.6,28.53-2.82,56.94-4,85.58-5.11,20.49-.77,41.21-2.6,61.84-3.2,8.46,0.92,16.9,2.11,25.3,3.71,19.49,3.71,38.55,9.68,56,19.19,14.59,7.94,23.93,19.07,22,36.53-2,18.19-16,24.88-31.72,30-19.69,6.38-40.19,9.92-60.72,12.22-74.11,8.3-149.15,3.91-223.35,11.8-69.37,7.38-140.89,27.46-189,81.15-25.05,27.93-44,67.79-27.35,104.71,14.62,32.38,47.2,48.14,80.23,55.46,40.74,9,83.28,10.26,124.83,11.48,46.37,1.36,92.52,3,138.88.4,46.73-2.64,98.78,19.65,145.63,20.26,33.44,0.44,61.26-25.38,94.7-25.28q2.57,0.55,5.15,1c26.6,5,54.38,2.35,81.14.29,26.53-2,52.92-1.4,79.46-2.44,24.3-1,49.37-4.43,71.53-15,31.82-15.21,68.59-54.65,41.74-90.15C1660.53,277.2,1616.27,272.88,1580.32,268.61Z"/><path class="cls-4" d="M913,264c-18.89-.33-37.43-3.19-54.08-10.93-16.15-7.51-24.93-24.88-18.52-42,6.13-16.37,21.14-27.31,37.7-31.48,21.57-5.43,114.56-6,136.52-8.94a161.78,161.78,0,0,0,29.64-6.5,65,65,0,0,0,11.66-4.94c1.51-.85,3-1.78,4.42-2.74,0.52-.34.76-0.49,0.87-0.54s0.3-.29.69-0.62a55.63,55.63,0,0,0,6.22-6.25c0.16-.24,1.11-1.49,1.4-1.95,0.72-1.12,1.42-2.24,2.07-3.4s1.36-2.56,2-3.89c0.1-.32.59-1.64,0.76-2.19a82.17,82.17,0,0,0,2.07-8.26l0.08-.36c0.06-.52.12-1,0.15-1.56,0.11-1.54.19-3.07,0.21-4.61a72.74,72.74,0,0,0-.39-7.93v-0.16l-0.1-.5c-0.13-.65-0.24-1.31-0.38-2q-0.4-2-.91-3.88a70.24,70.24,0,0,0-2.42-7.4c-0.17-.34-1-2.19-1.25-2.71q-1-2.07-2.22-4.07c-0.67-1.14-1.39-2.25-2.12-3.36-0.32-.49-1.27-1.77-1.38-2a59.48,59.48,0,0,0-5.69-6c-0.18-.17-0.63-0.55-1.11-1a77.23,77.23,0,0,0-16.37-6.08q-2-.18-4-0.3c-29.55-1.87-127,8-157.7,8-24.55,0-48.05,5.18-72.62,4.25-9-.34-23.17-7.59-29.85-14.45-9.82-10.08-1.81-10.9,8.9-17.47,15.22-9.34,34.63-16,51.32-15.72,11.24,0.2,22.47.47,33.71,0.51,16.51,0.06,33-.22,49.51-1.11,8.81-.48,17.62-1.12,26.4-2q3.75-.39,7.5-0.84l2.77-.35,0.65-.09c3.89-.56,7.76-1.18,11.63-1.89,4.64-.86,9.26-1.85,13.83-3,15.32-7.39,61.23-2.62,54.07-20.76-5.45-13.79-51.77-38.22-65.14-42-15.73-4.42-32.24-4.55-48.45-4.84-19.64-.34-39.21-2.21-58.84-2.79-23-.68-46,0.75-69.09,1.06-45.46.61-90.64-.42-135.93,4.64-4,.44-7.91.94-11.86,1.46-12.16,1.14-24.3,2.51-36.39,4.21q-7.24-.25-14.54-0.36c-23.5-.38-46.85-3.68-70.39-2.52-28.59,1.4-63.72,8.72-80.87,34.15-18.63,27.63-10.92,68.49,21,81.79,14.72,6.13,31.09,7,46.8,5.48,23.71-2.35,47.33-3.35,71.14-4.24,17-.64,34.26-2.16,51.4-2.66,7,0.77,14.05,1.75,21,3.08,16.2,3.08,32,8,46.57,16,12.13,6.6,19.89,15.85,18.33,30.37-1.63,15.12-13.27,20.68-26.37,24.92-16.37,5.3-33.4,8.25-50.47,10.16-61.6,6.9-124,3.25-185.66,9.81-57.66,6.14-155-2.51-195,42.12-20.82,23.22,1.32,81.68,15.18,112.37,12.15,26.91,39.23,40,66.69,46.1,33.86,7.5,69.23,8.53,103.76,9.54,38.54,1.13,76.91,2.51,115.44.33,38.85-2.19,82.11,16.33,121,16.84,27.79,0.36,50.92-21.1,78.72-21q2.13,0.46,4.28.86c22.11,4.14,45.2,2,67.44.24,22.05-1.7,44-1.16,66.05-2,20.19-.79,41-3.68,59.46-12.49,26.45-12.65,57-45.43,34.69-74.93C979.7,271.15,942.91,267.56,913,264Z"/><path class="cls-8" d="M1038.66,370.59a192.41,192.41,0,0,0-19.13-2.72c-44.67-21.4-96.13-6.45-133,26.31-26.1,23.16-42.18,52.9-50.45,84.77-14.85,29.68-18.59,64.66-12.53,97.76A146.86,146.86,0,0,0,834,617c15.21,36.25,42.38,66.46,78.22,81A151.78,151.78,0,0,0,970,719.33c101,15.62,197-65.07,210.18-155.89C1193,475.35,1133.86,389.12,1038.66,370.59Z"/><g id="_Group_2" data-name="&lt;Group&gt;"><g id="_Group_3" data-name="&lt;Group&gt;"><path class="cls-9" d="M1725.36,421.35c-8.93,6.16-18.92,11.45-25.05,15.77-9.4,6.6-18.58,13.39-28.23,19.65-8.82,5.72-16.85,14.73-27.18,17.76-12.84,3.77-29.36,1.74-42.71,2.29q-47.32,2-94.64,4h-0.21c-2.1.07-2.11,0.07-2.2-2-0.49-11.68-2.61-24.5.22-36s10.6-21.44,16.17-31.84c15.8-29.48,32.85-58.68,47.37-88.8,6.29-13,10-29.58,20.88-39.76,15.74-14.76,51.78-14.56,72-18.26,35.67-6.52,71.38-13,107.44-17-10.34,14.7-10.64,44.33-13.06,61.56q-4.25,30.35-8.2,60.74c-0.62,4.79-1.16,9.6-1.77,14.39-0.24,1.86-.25,3.73-0.68,5.59-0.69,3-.76,6.14-1.15,9.21C1743.33,407.09,1735,414.72,1725.36,421.35Z"/></g></g><path class="cls-10" d="M1714.86,300.67a479.64,479.64,0,0,1-85.74,6.15c-9.92-.2-16.5,12.4-7.33,18.92,19.5,13.87,41.61,29.6,52,51.76L1647.16,373c-12.66-2.15-25.27-4.61-38.07-2.08-5.95,1.18-11.74,8.41-8.06,14.61q12.75,21.5,27.41,41.68a96.05,96.05,0,0,1-21.73-3c-12.93-3.37-20.64,16.15-7.58,19.55a126.59,126.59,0,0,0,51,3.09c8-1.18,11.55-10.78,6.59-17-9.86-12.41-22.16-25-30.76-38.27,6.39,0.69,15.78,1.78,22.09,2.85l39.72,6.76c6.51,1.11,12.81-5.54,11.56-12-5.06-26-21.52-45.43-41-61.85,19.92-.8,40.56,5,60.29,1.83C1732.05,327,1728.19,298.52,1714.86,300.67Z"/><g id="_Group_4" data-name="&lt;Group&gt;"><g id="_Group_5" data-name="&lt;Group&gt;"><path class="cls-11" d="M1192.5,336c9.25,5.67,18.13,12.66,24.55,16.53,9.84,5.92,19.76,11.58,29.39,17.87,8.8,5.75,20.28,9.45,27.24,17.67,8.64,10.22,13.47,26.15,19.38,38.13Q1314,468.72,1335,511.18l0.1,0.19c0.91,1.89.92,1.9-1,2.83-10.48,5.18-21.35,12.3-33,14.36s-23.89-1-35.66-1.91c-33.35-2.52-67-6.3-100.38-7.39-14.47-.47-31.1,2.81-44.81-3-19.86-8.43-34.27-41.47-45.84-58.48-20.39-30-40.79-60-59-91.37,17.63,3.51,44.84-8.2,61.58-13q29.48-8.39,58.86-17.08c4.63-1.37,9.24-2.83,13.87-4.21,1.8-.53,3.51-1.28,5.39-1.64,3-.59,5.93-1.79,8.89-2.68C1172.19,325.37,1182.56,329.94,1192.5,336Z"/></g></g><path class="cls-5" d="M1118.36,358.73a566.92,566.92,0,0,1-21.2,99.37c-3.48,11.2,8.65,22.81,19.07,14.54,22.16-17.58,47.28-37.51,75.85-42l-13.89,28.73c-6.61,13.66-13.54,27.17-14.87,42.54-0.62,7.14,5.69,16.09,13.94,14q28.61-7.41,56.33-17.43A113.53,113.53,0,0,1,1223,522.09c-8.07,13.57,11.55,28.74,19.71,15A149.63,149.63,0,0,0,1263,480.2c1.29-9.46-8.44-16.65-17.15-13.08-17.33,7.12-35,13.44-52.89,18.82,2.89-7,6.54-13.82,9.83-20.63l20.73-42.88c3.39-7-2.08-16.36-9.77-17.06-31.18-2.8-58.66,9.5-83.69,26.18,5.64-22.88,19-44.4,21.89-67.85C1153.91,347.87,1120.31,342.89,1118.36,358.73Z"/><path class="cls-5" d="M1144.82-55.84c-37.75-54.75-163.43-92.63-227.34-97.58-65.73-5.09-126.45,22.31-171,74.32-41.75,48.7-64.17,116-64.42,181.9-0.25,65.58,26.31,132.17,74.3,173.43a216.23,216.23,0,0,0,102,48.87c55.19,19.07,118,8.11,167.18-26.56,52.76-37.16,92.07-101.65,97.91-169.86C1129.13,62.52,1181.75-2.28,1144.82-55.84ZM894.5,146.77c-0.64.33-1.25,0.67-1.81,1l-1.68.41-0.41-.09a9.3,9.3,0,0,1,2.24-1.29A11.38,11.38,0,0,1,894.5,146.77Z"/><path class="cls-8" d="M1161.89-8.95a192.41,192.41,0,0,0-16.15,10.61c-47.66,13.48-76.37,58.73-82.4,107.71-4.26,34.64,3.34,67.58,18.21,96.95,8.48,32.09,28.82,60.8,55.24,81.62a146.86,146.86,0,0,0,34.48,23.32c35.38,17.14,75.74,21.83,112.25,9.05A151.78,151.78,0,0,0,1341,298c86.13-55.1,104.77-179.1,54.58-255.93C1346.91-32.39,1245.55-58,1161.89-8.95Z"/><path d="M1159,33.88c-0.05.28,0,.21,0,0h0Z"/><path d="M1095.08-66.84c8.15,3.65,10.85,12.83,15.12,19.42,1.53,2.36,3.07,4.69,4.6,7q5.49,9.84,11.51,19.34c0.3,0.59.6,1.16,0.89,1.76a198.66,198.66,0,0,0,17.08,29.51,122.26,122.26,0,0,0,9.4,12.13c0.72,1.22,1.43,2.45,2.15,3.67a38.07,38.07,0,0,1,2.35,4.47c0.3,0.7.54,1.43,0.78,2.16a3.26,3.26,0,0,1,0,1.23c0-.13.06-0.34,0.13-0.65-0.74,3.47,3.38,4.78,7.25,3.9A16.44,16.44,0,0,0,1177,29.41c2.59-4.33.07-8.11-1.45-10.88-1-1.73-2-3.41-3-5.08L1171.54,12c-0.09-.19-1.46-2.56-1.41-2.48-6.31-11-13.24-21.58-20.31-32.09-0.93-1.38-1.83-2.77-2.74-4.15q-1.28-2.58-2.58-5.16c-5-10-11.56-18.91-17.34-28.39-4.59-7.53-8.1-16.34-17.21-20.47C1102.2-84.31,1086.7-70.59,1095.08-66.84Z"/><g id="_Group_6" data-name="&lt;Group&gt;"><g id="_Group_7" data-name="&lt;Group&gt;"><path class="cls-9" d="M956.73,0.39C964.95-3,973.87-5.56,979.53-8c8.67-3.68,17.2-7.56,26-10.92,8.06-3.08,16-8.93,24.85-9.59,10.95-.82,23.85,3.64,34.66,5.48q38.3,6.54,76.6,13l0.17,0c1.69,0.3,1.7.3,1.41,2-1.61,9.46-2.11,20.1-6.34,28.84s-12.18,15.38-18.43,22.77c-17.73,20.95-36.41,41.45-53.22,63.13-7.28,9.39-13.1,22-23.57,28.32-15.16,9.14-44,2.81-60.91,2.31-29.73-.88-59.5-1.78-89.11-4.76,10.82-10,16.13-33.74,21-47.15q8.61-23.62,17-47.32c1.32-3.74,2.57-7.5,3.88-11.24,0.51-1.45.84-2.95,1.5-4.37,1.07-2.3,1.66-4.8,2.5-7.19C939.86,8.75,947.89,4.06,956.73.39Z"/></g></g><path class="cls-4" d="M940.15,81.82A440.69,440.69,0,0,1,1009.32,120c7.55,5.11,18.92-1.3,15.11-10.92-8.09-20.45-17.27-43.62-14.2-65.89l18.25,16.8c8.68,8,17.17,16.19,28.3,20.64,5.17,2.07,13.25-.61,13.52-7.23q0.92-23-.29-45.83a88.26,88.26,0,0,1,15.24,13.19c8.28,9.06,24-2.13,15.62-11.28a116.31,116.31,0,0,0-37.8-27.9,9.73,9.73,0,0,0-13.59,9.81c1.4,14.5,2.13,29,2.1,43.59-4.58-3.73-8.81-8-13.13-12l-27.24-25.07c-4.46-4.11-12.64-2.14-14.89,3.43-9.1,22.57-6.13,45.78.64,68.16-15.75-9.34-28.76-24.14-45.56-31.56C940.07,52.92,928.8,76.81,940.15,81.82Z"/><path class="cls-6" d="M857.4,279.22a192.41,192.41,0,0,0-19.13-2.72c-44.67-21.4-96.13-6.45-133,26.31-26.1,23.16-42.18,52.9-50.45,84.77-14.85,29.68-18.59,64.66-12.53,97.76a146.86,146.86,0,0,0,10.45,40.29c15.21,36.25,42.38,66.46,78.22,81A151.78,151.78,0,0,0,788.76,628c101,15.62,197-65.07,210.18-155.89C1011.69,384,952.6,297.75,857.4,279.22Z"/><path d="M826.9,309.43c-0.22.17-.16,0.14,0,0h0Z"/><path d="M845.56,191.62c3.7,8.13-.34,16.8-1.5,24.56-0.41,2.78-.8,5.55-1.2,8.32q-2.39,11-4.15,22.12c-0.17.63-.32,1.27-0.5,1.9A198.66,198.66,0,0,0,831.51,282a122.26,122.26,0,0,0-1,15.32c-0.27,1.39-.55,2.78-0.81,4.18a38.07,38.07,0,0,1-1.19,4.91c-0.24.72-.54,1.43-0.85,2.14a3.26,3.26,0,0,1-.79.94l0.53-.4c-2.85,2.11-.63,5.81,2.86,7.72a16.44,16.44,0,0,0,13,1.2c4.8-1.53,5.42-6,6.11-9.12,0.43-1.93.76-3.87,1.09-5.82,0.1-.58.19-1.16,0.29-1.73,0.05-.2.6-2.89,0.58-2.79,2.54-12.42,4.34-24.95,6-37.5,0.22-1.64.46-3.29,0.69-4.93q0.75-2.78,1.48-5.58c2.83-10.81,3.83-21.83,5.77-32.77,1.54-8.68,4.73-17.61.62-26.73C862.46,183.22,841.76,183.26,845.56,191.62Z"/><g id="_Group_8" data-name="&lt;Group&gt;"><path id="_Path_2" data-name="&lt;Path&gt;" class="cls-9" d="M725.08,159.59c5.55,4.08,10.79,9,14.65,11.75,5.91,4.27,11.88,8.37,17.64,12.85,5.26,4.1,12.33,7,16.29,12.61,4.92,6.92,7.13,17.25,10.23,25.14q11,28,22,55.93l0,0.13c0.48,1.24.48,1.25-.76,1.74-6.9,2.72-14.15,6.65-21.63,7.34s-15.05-1.91-22.45-3.09c-21-3.36-42-7.52-63.08-10-9.13-1.06-19.81.13-28.18-4.27-12.12-6.38-19.48-28-25.89-39.4-11.31-20-22.62-40.11-32.5-60.9,11,3.15,28.79-2.81,39.63-4.94q19.08-3.75,38.12-7.69c3-.62,6-1.3,9-1.93,1.16-.24,2.29-0.62,3.49-0.75,2-.21,3.84-0.82,5.76-1.22C712.8,151.77,719.12,155.21,725.08,159.59Z"/></g><g id="_Group_9" data-name="&lt;Group&gt;"><g id="_Group_10" data-name="&lt;Group&gt;"><path class="cls-12" d="M1009.39,270.54c-6.12,3.77-12.91,6.93-17.12,9.57-6.45,4-12.76,8.22-19.35,12-6,3.48-11.65,9.17-18.59,10.82-8.63,2.05-19.49.14-28.34,0q-31.38-.33-62.76-0.62h-0.14c-1.39,0-1.4,0-1.38-1.42,0.08-7.75-.88-16.3,1.38-23.81s7.75-13.82,11.79-20.51c11.47-19,23.75-37.7,34.39-57.14,4.61-8.42,7.64-19.23,15.18-25.6,10.92-9.22,34.77-7.86,48.29-9.61,23.83-3.09,47.68-6.17,71.68-7.57-7.35,9.37-8.56,29-10.76,40.29q-3.86,19.94-7.51,39.91c-0.58,3.15-1.09,6.31-1.66,9.46-0.22,1.22-.29,2.46-0.64,3.68-0.56,2-.72,4-1.08,6.06C1021.77,261.72,1016,266.49,1009.39,270.54Z"/></g></g><path class="cls-6" d="M1484.43,334.47a206.23,206.23,0,0,0-20.5-2.91c-47.87-22.94-103-6.91-142.6,28.2-28,24.83-45.21,56.7-54.07,90.86-15.92,31.81-19.92,69.31-13.43,104.78a157.41,157.41,0,0,0,11.2,43.19c16.3,38.86,45.43,71.24,83.84,86.84a162.68,162.68,0,0,0,62,22.84C1519.17,725,1622,638.52,1636.14,541.17,1649.81,446.76,1586.46,354.33,1484.43,334.47Z"/><path class="cls-13" d="M1478,363.62a173,173,0,0,0-17.2-2.44c-40.17-19.25-86.45-5.8-119.65,23.66-23.47,20.83-37.94,47.58-45.37,76.23-13.36,26.69-16.72,58.15-11.27,87.92a132.07,132.07,0,0,0,9.4,36.24c13.68,32.6,38.12,59.77,70.35,72.86a136.5,136.5,0,0,0,52,19.17c90.88,14.05,177.19-58.52,189-140.2C1616.75,457.84,1563.6,380.29,1478,363.62Z"/><path class="cls-14" d="M1428.75,445.32s-20.61-67.06-50.33-43.68S1428.75,445.32,1428.75,445.32Z"/><path class="cls-14" d="M1419.3,471.59s-58.61,38.56-66.62,1.59S1419.3,471.59,1419.3,471.59Z"/><path class="cls-14" d="M1470,477s55.26,43.22,66.27,7S1470,477,1470,477Z"/><path class="cls-14" d="M1462.7,450s26-65.15,53.74-39.41S1462.7,450,1462.7,450Z"/><path class="cls-8" d="M1819.18,251a206.23,206.23,0,0,0,20.37,3.73c46.92,24.83,102.67,11,143.61-22.48,28.95-23.69,47.44-54.85,57.66-88.62,17.18-31.15,22.68-68.46,17.61-104.16A157.41,157.41,0,0,0,2049-4.18c-14.74-39.48-42.54-73-80.3-90.12a162.68,162.68,0,0,0-61-25.3c-107.55-21.06-213.8,61.25-231.78,158C1658.41,132.15,1718,227,1819.18,251Z"/><path class="cls-13" d="M1826.78,222.09a173,173,0,0,0,17.09,3.13c39.37,20.84,86.15,9.25,120.5-18.86,24.29-19.88,39.81-46,48.38-74.36,14.41-26.14,19-57.44,14.77-87.4A132.07,132.07,0,0,0,2019.58,8c-12.37-33.12-35.7-61.25-67.38-75.61A136.5,136.5,0,0,0,1901-88.83c-90.24-17.67-179.39,51.39-194.47,132.54C1691.89,122.4,1741.9,202,1826.78,222.09Z"/><path class="cls-8" d="M357.54,281.28a206.23,206.23,0,0,0-20.64-1.63c-49.21-19.9-103.26-.46-140.56,37.06C170,343.24,154.75,376.13,148,410.77c-13.9,32.75-15.55,70.42-6.86,105.42a157.41,157.41,0,0,0,13.88,42.4c18.7,37.76,49.79,68.26,89.11,81.43a162.68,162.68,0,0,0,63.31,18.92c109.14,9.94,206.41-82.81,214.39-180.85C529.62,383,460.62,294.72,357.54,281.28Z"/><path class="cls-13" d="M352.93,310.77a173,173,0,0,0-17.32-1.36c-41.29-16.7-86.64-.38-117.94,31.1-22.13,22.26-34.89,49.85-40.51,78.92-11.66,27.48-13,59.08-5.75,88.45a132.07,132.07,0,0,0,11.64,35.58c15.69,31.68,41.78,57.27,74.76,68.32a136.5,136.5,0,0,0,53.12,15.88c91.58,8.34,173.19-69.48,179.89-151.74C497.31,396.13,439.42,322.05,352.93,310.77Z"/><path class="cls-14" d="M319.76,450.25S295,384.6,266.8,409.8,319.76,450.25,319.76,450.25Z"/><path class="cls-14" d="M312,477.05s-56.09,42.15-66.39,5.75S312,477.05,312,477.05Z"/><path class="cls-14" d="M362.88,479.24s57.86,39.69,66.58,2.88S362.88,479.24,362.88,479.24Z"/><path class="cls-14" d="M353.94,452.8s21.9-66.65,51.17-42.69S353.94,452.8,353.94,452.8Z"/><path class="cls-15" d="M905.94,270.14A344.67,344.67,0,0,1,964,273.62c6.62,1,12.49-6.39,7.12-11.29-11.42-10.41-24.37-22.22-28.73-37.07l17.28,5.14c8.22,2.44,16.37,5.07,25.23,4.57,4.12-.23,8.84-4.29,7.1-8.51a311,311,0,0,0-13.46-28.61,66.62,66.62,0,0,1,14.19,3.76c8.25,3.23,15.7-8.41,7.36-11.67a89,89,0,0,0-33.79-6.32c-5.48.06-9,5.8-6.4,10.15a287.27,287.27,0,0,1,14,26.67c-4.19-1-8.3-2.39-12.4-3.61l-25.79-7.67c-4.22-1.26-9.22,2.39-9.14,6.54,0.34,16.82,9.08,30.47,20.17,42.49-13.42-1.2-26.55-6.63-40.12-6.32C897.52,252.07,896.77,270.35,905.94,270.14Z"/><path class="cls-15" d="M748.37,252.26a344.67,344.67,0,0,1-10.7-57.2c-0.66-6.66-9.23-10.57-12.68-4.17-7.34,13.61-15.65,29-29,36.86l0.8-18c0.38-8.56,1-17.11-1.67-25.58-1.22-3.94-6.3-7.54-10-4.83a311,311,0,0,0-24.5,20,66.62,66.62,0,0,1,.22-14.68c1.14-8.79-12-13.2-13.11-4.31a89,89,0,0,0,2.05,34.31c1.38,5.31,7.8,7.31,11.4,3.75a287.27,287.27,0,0,1,22.48-20.09c0.06,4.31-.31,8.63-0.5,12.9L682,238.07c-0.2,4.4,4.55,8.37,8.56,7.28,16.23-4.4,27.37-16.19,36.34-29.86,2.08,13.31,0,27.37,3.58,40.46C732.88,264.8,750.79,261.11,748.37,252.26Z"/><path class="cls-6" d="M88.31,236.56a192.41,192.41,0,0,0,17.23-8.74C154.41,219.74,188,178,199.45,130c8.1-33.94,4.22-67.53-7.28-98.37C187.32-1.23,170.32-32,146.38-55.67a146.86,146.86,0,0,0-31.66-27c-33.25-21-72.83-30.15-110.54-21.52A151.78,151.78,0,0,0-55.43-88.5c-91.74,45.14-124.1,166.29-82.8,248.24C-98.17,239.22-.3,276,88.31,236.56Z"/><path d="M96,194.32c0.08-.27.05-0.21,0,0h0Z"/><path d="M148.25,301.55c-7.69-4.54-9.35-14-12.86-21-1.25-2.51-2.52-5-3.78-7.51q-4.36-10.39-9.28-20.5c-0.23-.62-0.47-1.22-0.69-1.84A198.66,198.66,0,0,0,108,219.48a122.26,122.26,0,0,0-8-13.1c-0.58-1.3-1.14-2.6-1.73-3.89a38.07,38.07,0,0,1-1.84-4.7c-0.22-.73-0.38-1.48-0.53-2.23a3.26,3.26,0,0,1,.11-1.23c0,0.13-.1.33-0.2,0.63,1.12-3.36-2.82-5.12-6.77-4.69a16.44,16.44,0,0,0-11.38,6.5c-3.06,4-1,8.06.23,11,0.75,1.82,1.6,3.61,2.44,5.39l0.76,1.59c0.07,0.2,1.16,2.71,1.12,2.62,5,11.63,10.75,22.93,16.6,34.15,0.77,1.47,1.51,3,2.26,4.43q1,2.71,2,5.42c3.88,10.47,9.38,20.08,14.06,30.15,3.72,8,6.22,17.14,14.82,22.26C139.22,318.11,156.15,306.21,148.25,301.55Z"/><g id="_Group_11" data-name="&lt;Group&gt;"><path id="_Path_3" data-name="&lt;Path&gt;" class="cls-9" d="M265.31,258.7c-6.88-.16-14-1.16-18.74-1.23-7.29-.11-14.53,0-21.82-0.42-6.66-.34-14.14,1.3-20.58-1-8-2.85-15.73-10-22.8-14.73q-25-16.61-50.11-33.19l-0.11-.08c-1.1-.74-1.11-0.75-0.37-1.86,4.1-6.19,7.78-13.56,13.51-18.41s13.43-7.07,20.16-10.34c19.09-9.27,38.72-17.92,57.4-28C229.95,145.1,238,138,247.4,136.8c13.58-1.72,32,11.8,43.81,17.43,20.76,9.93,41.53,19.89,61.54,31.26-10.79,3.7-22,18.82-29.63,26.77q-13.49,14-26.83,28.16c-2.1,2.23-4.17,4.5-6.27,6.74-0.81.87-1.52,1.82-2.43,2.62-1.48,1.29-2.68,2.87-4,4.31C279.86,258.06,272.71,258.87,265.31,258.7Z"/></g><g id="_Group_12" data-name="&lt;Group&gt;"><g id="_Group_13" data-name="&lt;Group&gt;"><path class="cls-12" d="M-31.23,330.83c2.85-6.6,6.6-13.08,8.54-17.66,3-7,5.74-14.05,9-21,2.95-6.31,4.29-14.19,9-19.53,5.89-6.63,15.89-11.29,23.19-16.29q25.9-17.72,51.77-35.48l0.12-.08c1.15-.78,1.16-0.78,1.95.37,4.38,6.39,10.07,12.85,12.52,20.3s1.58,15.77,2.1,23.57c1.48,22.11,2.16,44.51,4.59,66.53,1.05,9.54,4.76,20.13,2.24,29.68-3.66,13.82-24,26.37-34,35.56C42,413,24.2,429.24,5.34,444.15,6,432.26-4.25,415.51-8.95,405q-8.27-18.55-16.73-37c-1.33-2.91-2.72-5.8-4.06-8.7-0.52-1.13-1.17-2.18-1.58-3.38-0.67-1.94-1.73-3.72-2.59-5.58C-36.32,345.16-34.29,337.92-31.23,330.83Z"/></g></g><path class="cls-15" d="M51.23,262.91A344.67,344.67,0,0,1,1.87,293.74c-6,3-6.48,12.45.74,13.33,15.34,1.87,32.74,4,44.9,13.56l-17.06,5.82c-8.11,2.77-16.28,5.35-23.21,10.89C4,339.92,2.52,346,6.38,348.4a311,311,0,0,0,27.55,15.52,66.62,66.62,0,0,1-13.74,5.15c-8.6,2.15-7.93,15.95.76,13.78a89,89,0,0,0,31.2-14.43c4.44-3.22,4-9.93-.66-12a287.27,287.27,0,0,1-26.9-13.6c4-1.63,8.15-2.86,12.2-4.24l25.46-8.69c4.17-1.42,6.13-7.29,3.66-10.62-10-13.51-25.06-19.57-41.05-22.94,11.64-6.79,25.48-10,36.37-18.1C68.56,272.76,58.59,257.43,51.23,262.91Z"/><path class="cls-15" d="M1290.91,95.8c0.15-.26.37-0.44,0.5-0.73s0.1-.32.17-0.49a24,24,0,0,0,2.65-6.39c1.22-5.16.46-10.7-3.23-14.67-5.27-5.65-14.44-5-19.76.17a17.11,17.11,0,0,0-3.67,1.77c-7,4.64-9,13.26-7.8,21.15,0.49,3.23,2.08,7,5.61,8.06,6.8,2,13.21,1.57,19.23-2.41a21.54,21.54,0,0,0,4.45-4.11,9.81,9.81,0,0,0,1.36-1.65C1290.58,96.27,1290.75,96,1290.91,95.8Z"/><path class="cls-15" d="M1343.36,138.23a28,28,0,0,0-7.63-10.75c-4-3.27-9.23-2-13,.85a25.76,25.76,0,0,0-5.4,5.7,17.11,17.11,0,0,0-2.88,4.32c-2.9,6.34-1.25,13.25,2.36,18.89a8.24,8.24,0,0,0,5,3.32c3.71,3.07,8.53,2.05,12-1.52,0.68-.69,1.18-1.43,1.76-2.15a18.06,18.06,0,0,0,5.49-4.41A14.7,14.7,0,0,0,1343.36,138.23Z"/><path class="cls-15" d="M1270.92,167.49c-2.39-7.85-9.49-13.43-17.89-11.73s-15.39,9.28-17,17.63c-1.8,9.35,3.54,20.1,13.71,19.66a6.11,6.11,0,0,0,4.14.4c6.76-1.7,13-5.41,15.52-12.28,0.12-.32.17-0.64,0.26-1A16.23,16.23,0,0,0,1270.92,167.49Z"/><path class="cls-15" d="M1222.21,108.18c-5.94-9.29-17.05-13.3-27.36-9-11.27,4.73-15.35,17-12.56,28.19,0.91,3.68,4.42,5.67,7.83,6.36a25.7,25.7,0,0,0,5.17.46c0.54,0.15,1.1.24,1.67,0.34a5.52,5.52,0,0,0,2.26.62c7,0.23,14.8-1.91,17.61-8.75a45,45,0,0,0,6-8.41A10,10,0,0,0,1222.21,108.18Z"/><path class="cls-15" d="M1330.18,209.4a8.52,8.52,0,0,0-8.35-6.11,9.77,9.77,0,0,0-5,1.54,8.45,8.45,0,0,0-5.67,3.57,9.48,9.48,0,0,0-2.22,1.94c-3.39,4.24-1.85,9.18-.59,13.87,1.46,5.4,8.34,6.29,12.31,3.35C1326.22,223.49,1332.59,216.72,1330.18,209.4Z"/><path class="cls-15" d="M1250.75,234.07a11.53,11.53,0,0,0-5.87,2.19c-0.42.29-.82,0.57-1.21,0.89-0.07.06-.1,0.06-0.16,0.11a5.4,5.4,0,0,1,.72-0.26c-3.82,1.07-6,5.49-5.93,9.42-4.25,7.23,2.26,14.5,9.93,10.11a28.35,28.35,0,0,0,9.38-8.83C1262,241.46,1258.57,233.83,1250.75,234.07Z"/><path class="cls-15" d="M1243.51,237.26c-0.8.33-.68,0.49,0,0h0Z"/><path class="cls-15" d="M1192.94,190.69a6.7,6.7,0,0,0-9-5.43c-3.11,1.18-5.83,3.91-7.68,5.56-2.85,2.54-4.68,6.24-3.39,10.09a7.81,7.81,0,0,0,8.5,5.13,18,18,0,0,0,8.57-3.76C1193.4,199.57,1194.94,194.68,1192.94,190.69Z"/><path class="cls-15" d="M1368,55.61c-1.11-5.59-6.56-7.86-11.68-6a20.49,20.49,0,0,0-4.89,2.74,16.46,16.46,0,0,0-1.3,1.1,17.2,17.2,0,0,0-5.06,5.45c-2.3,4.58.4,10.89,5.8,11.37a13.28,13.28,0,0,0,6-1.13c0.79-.31,5.54-2.62,2.89-1.89C1365,65.76,1369.15,61.5,1368,55.61Z"/><path class="cls-15" d="M1155.58,143.06a9.31,9.31,0,0,0-.83-7,16.9,16.9,0,0,0-3.78-4.4c-3.07-2.65-7.7-2.09-10.8.1a28.35,28.35,0,0,0-3.54,3.23c-0.18.17-.34,0.35-0.51,0.52a0.54,0.54,0,0,0-.22.11c-4.21,2.64-6.16,10.11-2.88,14.15,5,6.21,14.61,7.14,20.06.76A10.93,10.93,0,0,0,1155.58,143.06Z"/><path class="cls-15" d="M1198.68,260.29a6.1,6.1,0,0,0-4.45-6.52,11.2,11.2,0,0,0-8.71.26c-4.48,2.15-7.35,7.09-5.76,12.05,1.47,4.58,4.9,7.31,9.1,9.31C1197.55,279.53,1205.4,266.62,1198.68,260.29Z"/><path class="cls-15" d="M1310.36,271.7a12.36,12.36,0,0,0-5.28.52,11.85,11.85,0,0,0-5.9,1.34c-7.15,3.76-10.81,13.37-3.86,19.4a11.85,11.85,0,0,0,4,2.19c0.06,0,.11.08,0.18,0.1s0.15,0,.23,0c7,2.14,15.62-1.64,18.26-8.66C1320.37,280.26,1317.93,272.68,1310.36,271.7Z"/><path class="cls-15" d="M1213.38,60.1a9.81,9.81,0,0,1-1.09-.41C1214.51,60.88,1214.3,60.69,1213.38,60.1Z"/><path class="cls-15" d="M1223.75,37.9a8.17,8.17,0,0,0-9.43-.84c-5.35,2.83-9.56,7.92-8.23,14.39A11.33,11.33,0,0,0,1209,57c0.58,0.62,4.08,3.5.86,0.75,0.52,0.44,2.47,1.66,3.51,2.34l0.43,0.16a4.2,4.2,0,0,0,5.14.4,9.94,9.94,0,0,0,8.21-9.79,13.08,13.08,0,0,0-.72-4.44C1226.85,43.26,1226.41,40.14,1223.75,37.9Z"/><path id="_Path_4" data-name="&lt;Path&gt;" class="cls-14" d="M403.19,191.7a75.16,75.16,0,0,1-8.1,16.24c-7,11.26-13.21,23.06-19.65,34.68-3.73,6.73-8.35,8-14.76,4.11-3.62-2.17-4.89-4.63-3.13-8.71,2.2-5.14,3.36-10.66,6.68-15.4,1.37-2,4.1-3.49,2.49-7.5-0.82-2.05,2.17-6.39,4.41-8.77,5.65-6,8.78-13.64,13.78-20,2.17-2.77,12.74-6.17,15.12-4A9.43,9.43,0,0,1,403.19,191.7Z"/><path id="_Path_5" data-name="&lt;Path&gt;" class="cls-14" d="M489.43,218.35c4.61-10.21,9.57-20.29,13.63-30.71,1.67-4.29,4.51-7.43,7.2-10.73,2.23-2.74,6.49-4.48,9.38-3.3,5.77,2.37,7.13,6.8,5.4,12.42a15.53,15.53,0,0,1-1.38,3.17c-8.57,14.6-12.91,31.16-21.33,45.9a66.51,66.51,0,0,1-8.82,12.29c-4.12,1.45-6.15,9.09-11.26,5.81-5.8-3.72.68-8,1.61-12.07,0.84-3.67,2-7.22.51-11h0A48.5,48.5,0,0,0,489.43,218.35Z"/><path id="_Path_6" data-name="&lt;Path&gt;" class="cls-14" d="M509.1,102c2.73-10.27,5.44-20.73,8.33-31.15,1.08-3.87,3.15-7.55,3.7-11.47s3.72-5.77,5.66-8.56a2,2,0,0,1,1.22-.38c2.62,6.23,5.72-4.43,9.11.44,3,4.36,6.27,8.69,4.79,13.83-3.59,12.51-6.62,25.25-13,36.85-1.62,3-1.76,6.72-2.76,10.06-1.51,5.07-5.44,8.73-8.86,8.46-4.19-.33-7.69-4.52-8.11-10C509,107.52,509.13,104.87,509.1,102Z"/><path id="_Path_7" data-name="&lt;Path&gt;" class="cls-14" d="M525.69,301.33c2.73-10.27,5.44-20.73,8.33-31.15,1.08-3.87,3.15-7.55,3.7-11.47s3.72-5.77,5.66-8.56a2,2,0,0,1,1.22-.38c2.62,6.23,5.72-4.43,9.11.44,3,4.36,6.27,8.69,4.79,13.83-3.59,12.51-6.62,25.25-13,36.85-1.62,3-1.76,6.72-2.76,10.06-1.51,5.07-5.44,8.73-8.86,8.46-4.19-.33-7.69-4.52-8.11-10C525.61,306.81,525.72,304.16,525.69,301.33Z"/><path id="_Path_8" data-name="&lt;Path&gt;" class="cls-14" d="M643.91,51c-1.6,3.38-.25,6.77.77,9.79a36.36,36.36,0,0,1,.2,22.82c-1.15,3.83-2.07,7.27-7,7.63-5.12.38-10.24-2.1-12.08-6.56a18.81,18.81,0,0,1-1.44-6c-0.77-14.51-1.23-29-2.16-43.53-0.33-5,3.67-7,6-10.08,0.56-.77,3.23-1,4.13-0.35,4.53,3.25,10.45,5.66,10.57,12.47C642.95,41.81,645.77,46.21,643.91,51Z"/><path id="_Path_9" data-name="&lt;Path&gt;" class="cls-14" d="M592,116.29c-1.22,10.09-6.61,20.61-10.91,31.47-1.23,3.08-3.35,5.7-7.21,5.44-3.61-.25-8.78-4.83-9.65-8.08-1.17-4.34-1.53-8.74-.08-13,2.57-7.51,4-15.22,5.43-23,1-5.46,7.92-11.25,12.27-10.86C589.89,99,593.88,105.21,592,116.29Z"/><path id="_Path_10" data-name="&lt;Path&gt;" class="cls-14" d="M471.09,29.32a12,12,0,0,1-.69,3.13c-5.87,10-9.53,21.42-18.47,29.43-3.34,3-4.75,8-10.27,8.81a11.79,11.79,0,0,1-11.21-5.25c-1.81-2.88,1-4.26,2.21-5.91,3.18-4.25,5.27-9.28,7.12-13.93,3.07-7.68,8.84-13.75,11.35-21.66,1.35-4.26,4.17-7.24,9.53-7.21,6.39,0,9.17,1.89,9.86,7.95C470.71,26.43,470.95,28.14,471.09,29.32Z"/><path id="_Path_11" data-name="&lt;Path&gt;" class="cls-14" d="M390.33,111.6c-2.69,10-7.13,20-14.46,28.23a13.06,13.06,0,0,1-8.59,3.27c-3.2-.18-5.18-1.71-7.05-5-4.35-7.66-5.1-10.39.52-16.81S368,106,373.42,99.39c0.71-.86.89-2.14,1.54-3.08,2-2.91,4.91-6.34,8.27-4.6,3.17,1.64,7,4.26,7.13,9C390.44,104.08,390.35,107.49,390.33,111.6Z"/><path id="_Path_12" data-name="&lt;Path&gt;" class="cls-14" d="M465.34,153.17c-2.08,10.85-4,20.83-8.17,30.19-1.16,2.63-2.31,5.87-5.21,6.3s-6.08,4.51-9.35.52c-3-3.71-7.12-7.54-5.75-12.57,3.48-12.66,8.06-25,16-35.67,3.63-4.89,5.86-5,10.92-2,2.74,1.66,3.9,3.25,2.36,6.35a12.77,12.77,0,0,0-.86,4.24A14.57,14.57,0,0,0,465.34,153.17Z"/><path id="_Path_13" data-name="&lt;Path&gt;" class="cls-14" d="M484.38,230.17c5,4.92,2.41,10,.16,14.93a19.6,19.6,0,0,1-2.37,3.58c-1.13,1.5-.69,2.74.66,3.66s2,0.14,2.77-1c1.86-2.79,4.17-4.85,7.91-4-0.83,1.67.43,4.28-2.3,5.1-2.1.32-2.15,1.89-2.13,3.51-2.28,1.47-3.28,5.3-7.61,2.51-2.51-1.62-6.28-4.33-5.45-5.5,3-4.26.29-9.84,4-13.63C482.48,236.83,483.24,233.39,484.38,230.17Z"/><path id="_Path_14" data-name="&lt;Path&gt;" class="cls-14" d="M489.43,218.35c0,4.67.81,9.67-5.05,11.82-0.31-.45-1-1.09-0.88-1.3C485.42,225.33,487.44,221.85,489.43,218.35Z"/><path id="_Path_15" data-name="&lt;Path&gt;" class="cls-14" d="M489.08,256c-1.41-1.11-2.38-2.36-.84-4,1.19-1.29,2.27-1.25,3,.53C490.81,253.84,491.15,255.65,489.08,256Z"/><path class="cls-15" d="M296.07,197.84a344.67,344.67,0,0,1-43.79-38.32c-4.63-4.82-13.79-2.59-12.54,4.57,2.65,15.23,5.66,32.49,0,46.9l-10.51-14.64c-5-7-9.83-14-17.14-19.07-3.4-2.34-9.62-2-10.83,2.38a311,311,0,0,0-6.88,30.86,66.62,66.62,0,0,1-8.91-11.66c-4.55-7.61-17.56-3-13,4.72a89,89,0,0,0,22.84,25.69c4.37,3.31,10.66.92,11.28-4.1a287.27,287.27,0,0,1,5.23-29.69c2.71,3.35,5.09,7,7.59,10.45l15.69,21.85c2.57,3.58,8.75,3.76,11.23.42,10-13.5,11.48-29.65,10.08-45.94,9.87,9.17,16.93,21.5,27.85,29.57C291.66,217.28,303.45,203.29,296.07,197.84Z"/><path class="cls-13" d="M-10,69.11C-3,68,2.68,65,6.46,58.82a21.53,21.53,0,0,0,2.31-5.6,9.79,9.79,0,0,0,.53-2.07c0.05-.28.1-0.56,0.15-0.85s0.15-.56.15-0.87,0-.34-0.05-0.51A24,24,0,0,0,9.25,42C8.19,36.82,5.16,32.11.14,30.07-7,27.16-15.07,31.58-17.7,38.55a17.1,17.1,0,0,0-2.59,3.15c-4.36,7.14-2.58,15.81,1.84,22.46C-16.65,66.89-13.6,69.67-10,69.11Z"/><path class="cls-13" d="M70.82,58a25.76,25.76,0,0,0-2.5,7.44,17.12,17.12,0,0,0-.79,5.13c0,7,4.44,12.54,10.1,16.13a8.24,8.24,0,0,0,5.93.91c4.66,1.22,8.6-1.73,10.26-6.44,0.32-.91.46-1.79,0.69-2.69a18.06,18.06,0,0,0,3.12-6.31,14.7,14.7,0,0,0-3.91-13.9,28,28,0,0,0-11.45-6.53C77.24,50.51,73.05,53.84,70.82,58Z"/><path class="cls-13" d="M0.54,136.42c2.31,9.24,11.67,16.74,20.72,12.06a6.11,6.11,0,0,0,3.92-1.38c5.41-4.39,9.54-10.4,8.9-17.67,0-.34-0.12-0.65-0.17-1a16.23,16.23,0,0,0-4.21-12.06c-5.48-6.11-14.26-8.18-21.16-3.11S-1.52,128.17.54,136.42Z"/><path class="cls-13" d="M145.45,94.19c3.27-6,6.19-14.83.93-20.46a8.52,8.52,0,0,0-10.14-2,9.77,9.77,0,0,0-3.85,3.48,8.45,8.45,0,0,0-3.63,5.63,9.48,9.48,0,0,0-1.19,2.7c-1.29,5.27,2.19,9.11,5.31,12.82C136.47,100.62,143.08,98.53,145.45,94.19Z"/><path class="cls-13" d="M79.66,122.46c0,0.08-.06.1-0.1,0.17a5.4,5.4,0,0,1,.54-0.53,6.38,6.38,0,0,0-.63.68l0.09-.14a3.4,3.4,0,0,0-.3.37c-2.16,2.71-2.12,7-.56,10.14-0.81,8.35,8.16,12.2,13.26,5a28.34,28.34,0,0,0,4.79-12c1.32-7.5-5-13-12-9.48a11.52,11.52,0,0,0-4.4,4.46C80.12,121.58,79.88,122,79.66,122.46Z"/><path class="cls-13" d="M19.95,198.82a6.1,6.1,0,0,0-6.78-4,11.2,11.2,0,0,0-7.79,3.91c-3.16,3.83-3.68,9.53-.15,13.36,3.26,3.54,7.53,4.57,12.18,4.61C27,216.75,28.7,201.73,19.95,198.82Z"/><path class="cls-13" d="M126,156.17c-4.9,6.42-4.18,16.68,4.67,19.22a11.85,11.85,0,0,0,4.55.3c0.07,0,.14,0,0.2,0s0.14-.06.22-0.07c7.22-1,13.48-8.06,12.91-15.54-0.51-6.78-5.91-12.63-13.19-10.32a12.36,12.36,0,0,0-4.57,2.7A11.85,11.85,0,0,0,126,156.17Z"/><path class="cls-13" d="M159.08,62a9.81,9.81,0,0,1-1.1-.36C160.24,62.7,160,62.53,159.08,62Z"/><path id="_Path_16" data-name="&lt;Path&gt;" class="cls-10" d="M759.67,450.93A75.16,75.16,0,0,1,742,455.23c-13.14,1.9-26.13,4.81-39.17,7.4-7.55,1.5-11.47-1.23-12.67-8.62-0.68-4.17.38-6.72,4.63-8,5.34-1.64,10.31-4.32,16.07-4.85,2.38-.22,5.31.87,7.33-2.95,1-2,6.27-2.47,9.54-2.3,8.24,0.43,16.09-2.11,24.2-2.43,3.52-.14,12.94,5.74,12.83,9A9.43,9.43,0,0,1,759.67,450.93Z"/><path id="_Path_17" data-name="&lt;Path&gt;" class="cls-10" d="M896.54,473.85c9.6-4.55,19.34-9.24,29.16-13.77,3.65-1.68,7.8-2.48,11.15-4.59s6.81-.88,10.19-1.2a2,2,0,0,1,1.07.69c-3.06,6,7.08,1.51,5.55,7.24-1.36,5.14-2.58,10.4-7.46,12.59-11.87,5.34-23.55,11.26-36.51,13.9-3.31.68-6.27,3-9.46,4.39-4.85,2.12-10.18,1.49-12.18-1.3-2.45-3.42-1.52-8.79,2.36-12.62C892.29,477.32,894.39,475.7,896.54,473.85Z"/><path id="_Path_18" data-name="&lt;Path&gt;" class="cls-10" d="M927.49,397.87a12,12,0,0,1-2.84,1.5c-11.42,2-22.5,6.57-34.4,4.91-4.43-.62-9.2,1.57-13.36-2.15a11.79,11.79,0,0,1-3.24-11.95c1-3.25,3.89-2,5.94-2.13,5.3-.32,10.49-2,15.23-3.56,7.85-2.62,16.21-2.13,23.86-5.33,4.12-1.72,8.22-1.5,11.66,2.62,4.1,4.91,4.48,8.23.3,12.66C929.46,395.71,928.3,397,927.49,397.87Z"/><path id="_Path_19" data-name="&lt;Path&gt;" class="cls-10" d="M767.83,391.65c-9.33,4.38-19.87,7.48-30.89,7.2a13.06,13.06,0,0,1-8-4.44c-1.93-2.56-2-5.06-.73-8.62,3-8.26,4.64-10.6,13.17-10.46s16.35-4.36,24.88-4.47c1.12,0,2.21-.7,3.35-0.81,3.53-.33,8-0.35,8.86,3.34,0.8,3.48,1.29,8.11-2.24,11.23C773.64,386.87,771,389,767.83,391.65Z"/><path id="_Path_20" data-name="&lt;Path&gt;" class="cls-10" d="M829.24,473.49c-9.62,5.42-18.49,10.39-28.33,13.27-2.76.81-6,2-8.18,0.09s-7.37-1.73-6.43-6.8c0.86-4.72,1.16-10.31,5.88-12.51,11.91-5.52,24.27-10,37.58-10.81,6.08-.38,7.64,1.21,8.56,7.06,0.5,3.17,0,5.07-3.32,5.9a12.77,12.77,0,0,0-3.79,2.08A14.57,14.57,0,0,0,829.24,473.49Z"/></g><circle class="cls-14" cx="1500.39" cy="188.64" r="147.66"/><text class="cls-16" transform="translate(1376.09 184.21)">Direktno iz<tspan x="17.72" y="57.53">voćnjaka!</tspan></text></g></svg>